<svg width="40" height="40" viewBox="0 0 40 40" fill="none" xmlns="http://www.w3.org/2000/svg">
<path d="M3.57093 13.3382H11.618C12.0608 13.3382 12.4854 13.1626 12.7985 12.85C13.1116 12.5375 13.2875 12.1135 13.2875 11.6715C13.2875 11.2295 13.1116 10.8056 12.7985 10.493C12.4854 10.1804 12.0608 10.0048 11.618 10.0048H6.60945C8.94947 6.89159 12.3072 4.6941 16.1002 3.79346C19.8933 2.89283 23.8825 3.34587 27.376 5.074C30.8695 6.80213 33.6469 9.69636 35.2267 13.2548C36.8064 16.8132 37.0888 20.8113 36.0249 24.5558C34.961 28.3003 32.6178 31.555 29.4018 33.7554C26.1858 35.9558 22.2997 36.9632 18.4176 36.6028C14.5355 36.2425 10.9021 34.5371 8.14765 31.7824C5.39317 29.0278 3.6913 25.3976 3.3372 21.5215C3.32664 21.2968 3.27062 21.0766 3.17252 20.874C3.07443 20.6715 2.93628 20.4909 2.76641 20.3431C2.59654 20.1954 2.39845 20.0834 2.18409 20.0141C1.96973 19.9448 1.74353 19.9195 1.51912 19.9397C1.2947 19.96 1.07672 20.0254 0.878303 20.132C0.679884 20.2386 0.505136 20.3842 0.364585 20.56C0.224035 20.7358 0.120592 20.9383 0.0604879 21.1551C0.000383814 21.3718 -0.0151371 21.5985 0.0148601 21.8215C0.434758 26.405 2.4254 30.7036 5.65097 33.9923C8.87654 37.2809 13.1396 39.3583 17.7211 39.874C22.3026 40.3897 26.922 39.3122 30.8001 36.8231C34.6783 34.334 37.5778 30.5858 39.0095 26.2107C40.4413 21.8357 40.3176 17.1015 38.6594 12.8069C37.0012 8.51225 33.91 4.91999 29.9071 2.63608C25.9043 0.352177 21.2349 -0.483591 16.6866 0.269766C12.1383 1.02312 7.98943 3.3195 4.93993 6.77151V3.33818C4.93993 2.89616 4.76404 2.47224 4.45094 2.15968C4.13785 1.84712 3.7132 1.67152 3.27042 1.67152C2.82763 1.67152 2.40299 1.84712 2.08989 2.15968C1.7768 2.47224 1.6009 2.89616 1.6009 3.33818V11.6715C1.6009 12.1135 1.7768 12.5375 2.08989 12.85C2.40299 13.1626 2.82763 13.3382 3.27042 13.3382H3.57093ZM18.2961 10.0048C18.7388 10.0048 19.1635 10.1804 19.4766 10.493C19.7897 10.8056 19.9656 11.2295 19.9656 11.6715V20.0048H24.9741C25.4169 20.0048 25.8416 20.1804 26.1547 20.493C26.4678 20.8055 26.6436 21.2295 26.6436 21.6715C26.6436 22.1135 26.4678 22.5374 26.1547 22.85C25.8416 23.1626 25.4169 23.3382 24.9741 23.3382H18.2961C17.8533 23.3382 17.4286 23.1626 17.1155 22.85C16.8024 22.5374 16.6265 22.1135 16.6265 21.6715V11.6715C16.6265 11.2295 16.8024 10.8056 17.1155 10.493C17.4286 10.1804 17.8533 10.0048 18.2961 10.0048Z" fill="white"/>
</svg>
